# AST/ASF file generated using VICON BodyLanguage
# -----------------------------------------------
:version 1.10
:name VICON
:units
  mass 1.0
  length 0.45
  angle deg
:documentation
   .ast/.asf automatically generated from VICON data using
   VICON BodyBuilder and BodyLanguage model FoxedUp or BRILLIANT.MOD
:root
   order TX TY TZ RX RY RZ
   axis XYZ
   position 0 0 0  
   orientation 0 0 0 
:bonedata
  begin
     id 1 
     name lhipjoint
     direction 0.606768 -0.715223 0.346827 
     length 2.41543 
     axis 0 0 0  XYZ
  end
  begin
     id 2 
     name lfemur
     direction 0.34202 -0.939693 0  
     length 7.2778  
     axis 0 0 20  XYZ
    dof rx ry rz
    limits (-160.0 20.0)
           (-70.0 70.0)
           (-60.0 70.0)
  end
  begin
     id 3 
     name ltibia
     direction 0.34202 -0.939693 0   
     length 7.61811   
     axis 0 0 20   XYZ
    dof rx
    limits (-10.0 170.0)
  end
  begin
     id 4 
     name lfoot
     direction 0.0823924 -0.226371 0.97055   
     length 2.33618   
     axis -90 7.62852e-016 20   XYZ
    dof rx rz
    limits (-45.0 90.0)
           (-70.0 20.0)
  end
  begin
     id 5 
     name ltoes
     direction 1.53554e-011 -4.21934e-011 1   
     length 1.17015   
     axis -90 7.62852e-016 20   XYZ
    dof rx
    limits (-90.0 20.0)
  end
  begin
     id 6 
     name rhipjoint
     direction -0.6077 -0.714582 0.346516   
     length 2.4176  
     axis 0 0 0  XYZ 
  end
  begin
     id 7 
     name rfemur
     direction -0.34202 -0.939693 0   
     length 7.28127   
     axis 0 0 -20   XYZ
    dof rx ry rz
    limits (-160.0 20.0)
           (-70.0 70.0)
           (-70.0 60.0)
  end
  begin
     id 8 
     name rtibia
     direction -0.34202 -0.939693 0   
     length 7.77648   
     axis 0 0 -20   XYZ
    dof rx
    limits (-10.0 170.0)
 end
 begin
     id 9 
     name rfoot
     direction -0.0809463 -0.222398 0.97159   
     length 2.37533  
     axis -90 -7.62852e-016 -20   XYZ
    dof rx rz
    limits (-45.0 90.0)
           (-20.0 70.0)
  end
  begin
     id 10 
     name rtoes
     direction -1.53568e-011 -4.21714e-011 1   
     length 1.18972   
     axis -90 -7.62852e-016 -20   XYZ
    dof rx
    limits (-90.0 20.0)
  end
  begin
     id 11 
     name lowerback
     direction 0.010968 0.991932 -0.126297   
     length 2.21698   
     axis 0 0 0   XYZ
    dof rx ry rz
    limits (-20.0 45.0)
           (-30.0 30.0)
           (-30.0 30.0)
  end
  begin
     id 12 
     name upperback
     direction 0.0167007 0.997503 -0.0686276   
     length 2.22371   
     axis 0 0 0   XYZ
    dof rx ry rz
    limits (-20.0 45.0)
           (-30.0 30.0)
           (-30.0 30.0)
  end
  begin
     id 13 
     name thorax
     direction 0.0111721 0.999885 -0.0102878   
     length 2.25242   
     axis 0 0 0   XYZ
    dof rx ry rz
    limits (-20.0 45.0)
           (-30.0 30.0)
           (-30.0 30.0)
  end
  begin
     id 14 
     name lowerneck
     direction -0.0120265 0.990428 0.137508   
     length 1.57674   
     axis 0 0 0   XYZ
    dof rx ry rz
    limits (-20.0 45.0)
           (-30.0 30.0)
           (-30.0 30.0)
  end
  begin
     id 15 
     name upperneck
     direction 0.0175669 0.998907 0.0433089   
     length 1.5618   
     axis 0 0 0   XYZ
    dof rx ry rz
    limits (-20.0 45.0)
           (-30.0 30.0)
           (-30.0 30.0)
  end
  begin
     id 16
     name head
     direction 0.00754609 0.99997 0.00185367  
     length 1.60579  
     axis 0 0 0   XYZ
    dof rx ry rz
    limits (-20.0 45.0)
           (-30.0 30.0)
           (-30.0 30.0)
  end
  begin
     id 17 
     name lclavicle
     direction 0.885866 0.429166 -0.176231  
     length 3.44967  
     axis 0 0 0   XYZ
    dof ry rz
    limits (-20.0 10.0)
           (0.0 20.0)
  end
  begin
     id 18 
     name lhumerus
     direction 1 -4.48973e-011 -1.90255e-027   
     length 5.20607   
     axis 180 -30 -90   XYZ
    dof rx ry rz
    limits (-60.0 90.0)
           (-90.0 90.0)
           (-90.0 90.0)
  end
  begin
     id 19
     name lradius
     direction 1 -4.48956e-011 9.87925e-027   
     length 3.39961   
     axis 180 -30 -90   XYZ
    dof rx
    limits (-10.0 170.0)
  end
  begin
     id 20
     name lwrist
     direction 1 -4.48985e-011 1.73247e-026   
     length 1.6998   
     axis -9.60847e-015 90 90   XYZ
    dof ry
    limits (-180.0 0.0)
 end
  begin
     id 21 
     name lhand
     direction 1 -4.48798e-011 3.46119e-026   
     length 0.519693   
     axis -2.21073e-014 90 90   XYZ
    dof rx rz
    limits (-90.0 90.0)
           (-45.0 45.0)
  end
  begin
     id 22 
     name lfingers
     direction 1 -4.48938e-011 6.92797e-026   
     length 0.41899   
     axis -4.42155e-014 90 90   XYZ
    dof rx
    limits (0.0 90.0)
  end
  begin
     id 23
     name lthumb
     direction 0.707107 -6.34952e-011 0.707107   
     length 0.601588   
     axis -90 45 6.0103e-014   XYZ
    dof rx rz
    limits (-45.0 45.0)
           (-45.0 45.0)
  end
  begin
     id 24 
     name rclavicle
     direction -0.866736 0.456792 -0.200276   
     length 3.45032  
     axis 0 0 0   XYZ 
    dof ry rz
    limits (-10.0 20.0)
           (-20.0 0.0)
  end
  begin
     id 25 
     name rhumerus
     direction -1 -4.4897e-011 8.65094e-028  
     length 5.32214   
     axis 180 30 90   XYZ
    dof rx ry rz
    limits (-90.0 60.0)
           (-90.0 90.0)
           (-90.0 90.0)
  end
  begin
     id 26 
     name rradius
     direction -1 -4.48987e-011 1.08427e-026   
     length 3.51208   
     axis 180 30 90   XYZ
    dof rx
    limits (-10.0 170.0)
  end
  begin
     id 27 
     name rwrist
     direction -1 -4.48961e-011 1.73222e-026   
     length 1.75604   
     axis -9.60847e-015 -90 -90   XYZ
    dof ry
    limits (-180.0 0.0)
  end
  begin
     id 28
     name rhand
     direction -1 -4.48895e-011 3.46314e-026   
     length 0.586681   
     axis -2.21073e-014 -90 -90   XYZ
    dof rx rz
    limits (-90.0 90.0)
           (-45.0 45.0)
  end
  begin
     id 29
     name rfingers
     direction -1 -4.48968e-011 6.92916e-026   
     length 0.472997   
     axis -4.42155e-014 -90 -90   XYZ
    dof rx
    limits (0.0 90.0)
  end
  begin
     id 30
     name rthumb
     direction -0.707107 -6.34848e-011 0.707107   
     length 0.679133   
     axis -90 -45 -6.0103e-014   XYZ
    dof rx rz
    limits (-45.0 45.0)
           (-45.0 45.0)
  end
:hierarchy
  begin
    root lhipjoint rhipjoint lowerback
    lhipjoint lfemur
    lfemur ltibia
    ltibia lfoot
    lfoot ltoes
    rhipjoint rfemur
    rfemur rtibia
    rtibia rfoot
    rfoot rtoes
    lowerback upperback
    upperback thorax
    thorax lowerneck lclavicle rclavicle
    lowerneck upperneck
    upperneck head
    lclavicle lhumerus
    lhumerus lradius
    lradius lwrist
    lwrist lhand lthumb
    lhand lfingers
    rclavicle rhumerus
    rhumerus rradius
    rradius rwrist
    rwrist rhand rthumb
    rhand rfingers
  end

#!OML:ASF H:\Dans Jumps\Project 1\Capture day 1\Session 1\subject.ASF
:FULLY-SPECIFIED
:DEGREES
61
root 0.595383 17.5392 -13.9469 6.04925 -1.77907 -1.67892
lowerback -3.39343 -0.635772 0.229979
upperback 2.3471 -0.941582 1.98132
thorax 4.35545 -0.493499 1.85043
lowerneck -14.6273 0.322269 -2.32743
upperneck 23.5806 0.930016 0.426321
head 9.88902 0.267199 0.659388
rclavicle 2.48481e-015 5.96354e-015
rhumerus -25.9441 -16.0298 -77.9951
rradius 24.2537
rwrist 32.5272
rhand -19.3451 -26.1549
rfingers 7.12502
rthumb 6.97204 -56.0201
lclavicle 2.48481e-015 5.96354e-015
lhumerus -22.3211 -3.23126 87.9799
lradius 19.7392
lwrist 4.05811
lhand -23.5078 -3.29529
lfingers 7.12502
lthumb 2.95272 26.664
rfemur -11.5568 -3.75376 20.3612
rtibia 20.5232
rfoot -13.9113 -1.39051
rtoes 13.4964
lfemur -11.0761 7.63955 -17.8238
ltibia 18.7502
lfoot -11.4493 5.95897
ltoes -3.93393
62
root 0.597019 17.5389 -13.9477 6.04338 -1.78255 -1.6874
lowerback -3.39405 -0.628977 0.242998
upperback 2.35534 -0.933451 1.98339
thorax 4.36394 -0.489156 1.84583
lowerneck -14.6247 0.31758 -2.33346
upperneck 23.607 0.923787 0.431492
head 9.89798 0.264126 0.66157
rclavicle -1.78906e-014 -6.36111e-015
rhumerus -25.9258 -16.01 -78.0159
rradius 24.2734
rwrist 32.5004
rhand -19.3395 -26.1366
rfingers 7.12502
rthumb 6.97739 -56.0016
lclavicle -1.78906e-014 -6.36111e-015
lhumerus -22.2854 -3.19027 87.942
lradius 19.7179
lwrist 4.03712
lhand -23.526 -3.31125
lfingers 7.12502
lthumb 2.93516 26.6483
rfemur -11.5523 -3.74861 20.3645
rtibia 20.5217
rfoot -13.9098 -1.39363
rtoes 13.4927
lfemur -11.0841 7.63193 -17.8202
ltibia 18.7738
lfoot -11.4531 5.9746
ltoes -3.96262
63
root 0.598614 17.5386 -13.9485 6.03749 -1.78779 -1.69538
lowerback -3.39492 -0.622191 0.254859
upperback 2.36358 -0.92527 1.98533
thorax 4.3726 -0.48482 1.84176
lowerneck -14.6223 0.313327 -2.33909
upperneck 23.6354 0.917983 0.437023
head 9.90769 0.261306 0.663877
rclavicle -4.27387e-015 3.97569e-015
rhumerus -25.9046 -15.9948 -78.0354
rradius 24.2904
rwrist 32.4774
rhand -19.3337 -26.1202
rfingers 7.12502
rthumb 6.98306 -55.985
lclavicle -4.27387e-015 3.97569e-015
lhumerus -22.2495 -3.14654 87.9032
lradius 19.6967
lwrist 4.01729
lhand -23.5419 -3.31266
lfingers 7.12502
lthumb 2.91975 26.6471
rfemur -11.5484 -3.74089 20.3672
rtibia 20.521
rfoot -13.909 -1.39671
rtoes 13.4875
lfemur -11.0902 7.62672 -17.8168
ltibia 18.7948
lfoot -11.4582 5.98704
ltoes -3.97681
64
root 0.600172 17.5382 -13.9493 6.03219 -1.79309 -1.70343
lowerback -3.3966 -0.6166 0.265297
upperback 2.37129 -0.918665 1.9885
thorax 4.38125 -0.481328 1.83963
lowerneck -14.624 0.309397 -2.34512
upperneck 23.6697 0.913161 0.441461
head 9.9203 0.258709 0.666046
rclavicle 5.46658e-016 -2.78299e-015
rhumerus -25.8819 -15.9779 -78.0542
rradius 24.3088
rwrist 32.4566
rhand -19.3244 -26.1162
rfingers 7.12502
rthumb 6.99202 -55.9808
lclavicle 5.46658e-016 -2.78299e-015
lhumerus -22.2153 -3.09739 87.8642
lradius 19.6769
lwrist 3.99639
lhand -23.5483 -3.30352
lfingers 7.12502
lthumb 2.91361 26.6563
rfemur -11.545 -3.73205 20.3702
rtibia 20.5207
rfoot -13.9083 -1.39955
rtoes 13.4876
lfemur -11.096 7.62314 -17.813
ltibia 18.8144
lfoot -11.4648 5.99642
ltoes -3.97968
